<svg width="53" height="101" viewBox="0 0 53 101" fill="none" xmlns="http://www.w3.org/2000/svg">
<path d="M26.7986 99H20.8108H19.3926V30.6963L20.8108 29.4387H23.7259V30.6963L26.7986 99Z" stroke="#EF5350" stroke-width="4"/>
<path d="M17.2652 31.9539L18.6046 29.2815L16.1622 28.3383C11.7763 38.7397 2.84709 60.0928 2.21679 62.2936C1.58649 64.4944 2.47941 63.9966 3.00466 63.4726L13.4046 43.2723L16.1622 37.8489L16.7137 34.3119L17.2652 31.9539Z" stroke="#EF5350" stroke-width="4"/>
<path d="M23.8834 30.6963L27.1925 31.0107L28.5318 30.4605L29.1621 27.7094L23.4894 26.1374L17.8955 25.037C16.5561 25.0108 14.3343 25.5086 16.1622 27.7094L18.5258 29.2814L19.3137 30.4605" stroke="#EF5350" stroke-width="4"/>
<path d="M20.5743 27.3164C17.6749 28.0081 18.0006 26.347 18.5258 25.43C27.1399 21.238 45.1087 12.6025 48.0711 11.5964C51.0336 10.5903 49.9358 12.0156 49.0166 12.854L20.5743 27.3164Z" fill="#F2F2F2" stroke="#EF5350" stroke-width="5"/>
<path d="M7.81044 3.97214L16.0831 25.823L18.5256 25.1156C15.5842 18.8014 9.48074 5.73279 8.59831 3.97214C7.71589 2.2115 7.70539 3.23854 7.81044 3.97214Z" stroke="#EF5350" stroke-width="5"/>
</svg>
